<?xml version="1.0" encoding="utf-8"?>
<!-- Generator: Adobe Illustrator 16.0.3, SVG Export Plug-In . SVG Version: 6.00 Build 0)  -->
<!DOCTYPE svg PUBLIC "-//W3C//DTD SVG 1.1//EN" "http://www.w3.org/Graphics/SVG/1.1/DTD/svg11.dtd">
<svg version="1.1" id="Layer_1" xmlns="http://www.w3.org/2000/svg" xmlns:xlink="http://www.w3.org/1999/xlink" x="0px" y="0px"
	 width="337.441px" height="353.791px" viewBox="178.535 78.027 337.441 353.791"
	 enable-background="new 178.535 78.027 337.441 353.791" xml:space="preserve">
<g>
	<g>
		<path fill="#CFE2F3" d="M205.93,103.704h143.062v151.097H205.93V103.704z"/>
		<path fill="none" stroke="#000000" stroke-linejoin="round" stroke-miterlimit="10" stroke-dasharray="1,3" d="M205.93,103.704
			h143.062v151.097H205.93V103.704z"/>
		<path fill="#CFE2F3" d="M348.992,103.704h143.063v151.097H348.992V103.704z"/>
		<path fill="none" stroke="#000000" stroke-linejoin="round" stroke-miterlimit="10" stroke-dasharray="1,3" d="M348.992,103.704
			h143.063v151.097H348.992V103.704z"/>
		<path fill="#CFE2F3" d="M205.93,254.801h143.062v151.098H205.93V254.801z"/>
		<path fill="none" stroke="#000000" stroke-linejoin="round" stroke-miterlimit="10" stroke-dasharray="1,3" d="M205.93,254.801
			h143.062v151.098H205.93V254.801z"/>
		<path fill="#CFE2F3" d="M348.992,254.801h143.063v151.098H348.992V254.801z"/>
		<path fill="none" stroke="#000000" stroke-linejoin="round" stroke-miterlimit="10" stroke-dasharray="1,3" d="M348.992,254.801
			h143.063v151.098H348.992V254.801z"/>
		<path fill-opacity="0" d="M235.131,154.118h84.661v50.268h-84.661V154.118z"/>
		<path d="M271.741,189.706v-18.982h12.165v2.844h-8.798v4.849h7.462v2.844h-7.462v5.603h9.09v2.844H271.741z"/>
		<path fill-opacity="0" d="M378.193,159.996h84.662v50.268h-84.662V159.996z"/>
		<path d="M403.156,195.935c-1.329,0-2.604-0.243-3.828-0.729c-1.215-0.486-2.297-1.175-3.245-2.066l1.969-2.285
			c0.713,0.632,1.523,1.146,2.431,1.543c0.916,0.397,1.875,0.595,2.88,0.595c1.102,0,1.945-0.214,2.528-0.644
			c0.583-0.438,0.875-0.984,0.875-1.641c0-0.567-0.138-1.017-0.413-1.349c-0.268-0.34-0.64-0.627-1.118-0.863
			c-0.47-0.235-1.025-0.478-1.665-0.729l-2.588-1.13c-0.656-0.267-1.3-0.611-1.932-1.033c-0.624-0.43-1.134-0.972-1.531-1.628
			c-0.397-0.665-0.596-1.462-0.596-2.394c0-1.005,0.28-1.908,0.839-2.71c0.559-0.802,1.336-1.438,2.333-1.908
			c0.997-0.478,2.135-0.717,3.415-0.717c1.159,0,2.265,0.219,3.318,0.656c1.061,0.43,1.989,1.013,2.783,1.75l-1.75,2.151
			c-0.632-0.527-1.304-0.928-2.017-1.203c-0.705-0.284-1.54-0.425-2.503-0.425c-0.892,0-1.621,0.194-2.188,0.583
			c-0.559,0.389-0.839,0.94-0.839,1.653c0,0.486,0.154,0.883,0.462,1.191c0.316,0.308,0.721,0.58,1.215,0.814
			s1.021,0.458,1.58,0.668l2.492,1.069c0.818,0.316,1.535,0.697,2.151,1.142c0.624,0.438,1.11,0.984,1.458,1.641
			c0.348,0.648,0.522,1.434,0.522,2.358c0,1.029-0.284,1.969-0.851,2.819c-0.559,0.851-1.361,1.536-2.406,2.054
			C405.89,195.68,404.63,195.935,403.156,195.935z M419.044,202.838v-29.033h2.965v29.033H419.044z M432.138,195.583L429.44,176.6
			h3.597l0.96,10.999c0.041,0.526,0.077,1.029,0.109,1.507c0.041,0.47,0.069,0.948,0.085,1.434c0.024,0.478,0.045,1.017,0.062,1.616
			h0.085c0.097-0.6,0.198-1.138,0.304-1.616c0.113-0.486,0.219-0.964,0.315-1.434c0.098-0.478,0.203-0.98,0.316-1.507l1.567-6.149
			h2.528l1.482,6.149c0.13,0.526,0.243,1.021,0.34,1.482c0.098,0.462,0.194,0.94,0.292,1.434s0.194,1.041,0.292,1.641h0.121
			c0.032-0.6,0.057-1.146,0.073-1.641c0.024-0.494,0.044-0.972,0.061-1.434c0.024-0.462,0.057-0.956,0.098-1.482l0.923-10.999h3.403
			l-2.564,18.983h-3.804l-1.471-6.733c-0.138-0.6-0.255-1.195-0.353-1.787c-0.097-0.591-0.187-1.179-0.268-1.762h-0.085
			c-0.072,0.583-0.153,1.17-0.243,1.762c-0.089,0.592-0.198,1.187-0.328,1.787l-1.458,6.733H432.138z"/>
		<path fill-opacity="0" d="M235.131,305.216h84.661v50.268h-84.661V305.216z"/>
		<path d="M271.741,340.803V321.82h12.165v2.844h-8.798v4.849h7.462v2.844h-7.462v5.603h9.09v2.844H271.741z"/>
		<path fill-opacity="0" d="M378.193,305.216h84.662v50.268h-84.662V305.216z"/>
		<path fill-opacity="0" d="M378.193,305.216h84.662v50.268h-84.662V305.216z"/>
		<path d="M396.545,340.803V321.82h3.536l5.031,10.646l1.702,4.071h0.097c-0.065-0.973-0.162-2.029-0.292-3.172
			c-0.122-1.143-0.183-2.244-0.183-3.306v-8.239h3.233v18.982h-3.549l-5.019-10.683l-1.713-4.034h-0.085
			c0.057,1.004,0.146,2.065,0.268,3.184c0.129,1.11,0.194,2.188,0.194,3.232v8.301H396.545z M419.044,348.058v-29.032h2.965v29.032
			H419.044z M432.138,340.803l-2.697-18.982h3.597l0.96,10.998c0.041,0.526,0.077,1.029,0.109,1.507
			c0.041,0.47,0.069,0.948,0.085,1.435c0.024,0.478,0.045,1.017,0.062,1.616h0.085c0.097-0.6,0.198-1.139,0.304-1.616
			c0.113-0.486,0.219-0.965,0.315-1.435c0.098-0.478,0.203-0.98,0.316-1.507l1.567-6.149h2.528l1.482,6.149
			c0.13,0.526,0.243,1.021,0.34,1.482c0.098,0.462,0.194,0.94,0.292,1.435s0.194,1.041,0.292,1.641h0.121
			c0.032-0.6,0.057-1.146,0.073-1.641c0.024-0.494,0.044-0.973,0.061-1.435c0.024-0.462,0.057-0.956,0.098-1.482l0.923-10.998h3.403
			l-2.564,18.982h-3.804l-1.471-6.732c-0.138-0.6-0.255-1.195-0.353-1.787c-0.097-0.591-0.187-1.179-0.268-1.762h-0.085
			c-0.072,0.583-0.153,1.171-0.243,1.762c-0.089,0.592-0.198,1.188-0.328,1.787l-1.458,6.732H432.138z"/>
		<path fill-opacity="0" d="M206.661,102.914l0.735,303.64"/>
		<path fill="none" stroke="#000000" stroke-width="8" stroke-linejoin="round" stroke-miterlimit="10" d="M206.661,102.914
			l0.735,303.64"/>
		<path fill-opacity="0" d="M207.39,102.914h286.835"/>
		<path fill="none" stroke="#000000" stroke-width="8" stroke-linejoin="round" stroke-miterlimit="10" d="M207.39,102.914h286.835"
			/>
		<path fill-opacity="0" d="M492.773,103.643v302.904"/>
		<path fill="none" stroke="#000000" stroke-width="8" stroke-linejoin="round" stroke-miterlimit="10" d="M492.773,103.643v302.904
			"/>
		<path fill-opacity="0" d="M494.964,407.271l-287.57-2.18"/>
		<path fill="none" stroke="#000000" stroke-width="8" stroke-linejoin="round" stroke-miterlimit="10" d="M494.964,407.271
			l-287.57-2.18"/>
		<path fill="#CFE2F3" d="M325.667,106.3L325.667,106.3c0-12.9,10.458-23.358,23.358-23.358l0,0c6.195,0,12.136,2.461,16.517,6.841
			c4.38,4.381,6.841,10.322,6.841,16.517l0,0c0,12.9-10.458,23.358-23.358,23.358l0,0
			C336.125,129.658,325.667,119.201,325.667,106.3z"/>
		<path fill-opacity="0" d="M332.509,89.784l33.033,33.033 M365.542,89.784l-33.033,33.033"/>
		<path fill-opacity="0" d="M325.667,106.3L325.667,106.3c0-12.9,10.458-23.358,23.358-23.358l0,0
			c6.195,0,12.136,2.461,16.517,6.841c4.38,4.381,6.841,10.322,6.841,16.517l0,0c0,12.9-10.458,23.358-23.358,23.358l0,0
			C336.125,129.658,325.667,119.201,325.667,106.3z"/>
		<path fill="none" stroke="#000000" stroke-linejoin="round" stroke-miterlimit="10" d="M332.509,89.784l33.033,33.033
			 M365.542,89.784l-33.033,33.033"/>
		<path fill="none" stroke="#000000" stroke-linejoin="round" stroke-miterlimit="10" d="M325.667,106.3L325.667,106.3
			c0-12.9,10.458-23.358,23.358-23.358l0,0c6.195,0,12.136,2.461,16.517,6.841c4.38,4.381,6.841,10.322,6.841,16.517l0,0
			c0,12.9-10.458,23.358-23.358,23.358l0,0C336.125,129.658,325.667,119.201,325.667,106.3z"/>
		<path fill="#CFE2F3" d="M468.76,101.885L468.76,101.885c0-12.9,10.458-23.358,23.358-23.358l0,0
			c6.194,0,12.136,2.461,16.516,6.841c4.381,4.381,6.842,10.322,6.842,16.517l0,0c0,12.9-10.458,23.358-23.357,23.358l0,0
			C479.218,125.243,468.76,114.785,468.76,101.885z"/>
		<path fill-opacity="0" d="M475.602,85.368l33.032,33.033 M508.634,85.368l-33.032,33.033"/>
		<path fill-opacity="0" d="M468.76,101.885L468.76,101.885c0-12.9,10.458-23.358,23.358-23.358l0,0
			c6.194,0,12.136,2.461,16.516,6.841c4.381,4.381,6.842,10.322,6.842,16.517l0,0c0,12.9-10.458,23.358-23.357,23.358l0,0
			C479.218,125.243,468.76,114.785,468.76,101.885z"/>
		<path fill="none" stroke="#000000" stroke-linejoin="round" stroke-miterlimit="10" d="M475.602,85.368l33.032,33.033
			 M508.634,85.368l-33.032,33.033"/>
		<path fill="none" stroke="#000000" stroke-linejoin="round" stroke-miterlimit="10" d="M468.76,101.885L468.76,101.885
			c0-12.9,10.458-23.358,23.358-23.358l0,0c6.194,0,12.136,2.461,16.516,6.841c4.381,4.381,6.842,10.322,6.842,16.517l0,0
			c0,12.9-10.458,23.358-23.357,23.358l0,0C479.218,125.243,468.76,114.785,468.76,101.885z"/>
		<path fill="#CFE2F3" d="M468.76,253.08L468.76,253.08c0-12.9,10.458-23.358,23.358-23.358l0,0c6.194,0,12.136,2.461,16.516,6.841
			c4.381,4.38,6.842,10.322,6.842,16.517l0,0c0,12.9-10.458,23.357-23.357,23.357l0,0C479.218,276.438,468.76,265.98,468.76,253.08z
			"/>
		<path fill-opacity="0" d="M475.602,236.563l33.032,33.033 M508.634,236.563l-33.032,33.033"/>
		<path fill-opacity="0" d="M468.76,253.08L468.76,253.08c0-12.9,10.458-23.358,23.358-23.358l0,0
			c6.194,0,12.136,2.461,16.516,6.841c4.381,4.38,6.842,10.322,6.842,16.517l0,0c0,12.9-10.458,23.357-23.357,23.357l0,0
			C479.218,276.438,468.76,265.98,468.76,253.08z"/>
		<path fill="none" stroke="#000000" stroke-linejoin="round" stroke-miterlimit="10" d="M475.602,236.563l33.032,33.033
			 M508.634,236.563l-33.032,33.033"/>
		<path fill="none" stroke="#000000" stroke-linejoin="round" stroke-miterlimit="10" d="M468.76,253.08L468.76,253.08
			c0-12.9,10.458-23.358,23.358-23.358l0,0c6.194,0,12.136,2.461,16.516,6.841c4.381,4.38,6.842,10.322,6.842,16.517l0,0
			c0,12.9-10.458,23.357-23.357,23.357l0,0C479.218,276.438,468.76,265.98,468.76,253.08z"/>
		<path fill="#CFE2F3" d="M325.667,407.96L325.667,407.96c0-12.9,10.458-23.358,23.358-23.358l0,0
			c6.195,0,12.136,2.461,16.517,6.842s6.841,10.321,6.841,16.517l0,0c0,12.9-10.458,23.357-23.358,23.357l0,0
			C336.125,431.317,325.667,420.86,325.667,407.96z"/>
		<path fill-opacity="0" d="M332.509,391.443l33.033,33.033 M365.542,391.443l-33.033,33.033"/>
		<path fill-opacity="0" d="M325.667,407.96L325.667,407.96c0-12.9,10.458-23.358,23.358-23.358l0,0
			c6.195,0,12.136,2.461,16.517,6.842s6.841,10.321,6.841,16.517l0,0c0,12.9-10.458,23.357-23.358,23.357l0,0
			C336.125,431.317,325.667,420.86,325.667,407.96z"/>
		<path fill="none" stroke="#000000" stroke-linejoin="round" stroke-miterlimit="10" d="M332.509,391.443l33.033,33.033
			 M365.542,391.443l-33.033,33.033"/>
		<path fill="none" stroke="#000000" stroke-linejoin="round" stroke-miterlimit="10" d="M325.667,407.96L325.667,407.96
			c0-12.9,10.458-23.358,23.358-23.358l0,0c6.195,0,12.136,2.461,16.517,6.842s6.841,10.321,6.841,16.517l0,0
			c0,12.9-10.458,23.357-23.358,23.357l0,0C336.125,431.317,325.667,420.86,325.667,407.96z"/>
		<path fill="#CFE2F3" d="M468.76,404.275L468.76,404.275c0-12.9,10.458-23.358,23.358-23.358l0,0
			c6.194,0,12.136,2.461,16.516,6.842c4.381,4.38,6.842,10.321,6.842,16.517l0,0c0,12.899-10.458,23.357-23.357,23.357l0,0
			C479.218,427.633,468.76,417.175,468.76,404.275z"/>
		<path fill-opacity="0" d="M475.602,387.759l33.032,33.032 M508.634,387.759l-33.032,33.032"/>
		<path fill-opacity="0" d="M468.76,404.275L468.76,404.275c0-12.9,10.458-23.358,23.358-23.358l0,0
			c6.194,0,12.136,2.461,16.516,6.842c4.381,4.38,6.842,10.321,6.842,16.517l0,0c0,12.899-10.458,23.357-23.357,23.357l0,0
			C479.218,427.633,468.76,417.175,468.76,404.275z"/>
		<path fill="none" stroke="#000000" stroke-linejoin="round" stroke-miterlimit="10" d="M475.602,387.759l33.032,33.032
			 M508.634,387.759l-33.032,33.032"/>
		<path fill="none" stroke="#000000" stroke-linejoin="round" stroke-miterlimit="10" d="M468.76,404.275L468.76,404.275
			c0-12.9,10.458-23.358,23.358-23.358l0,0c6.194,0,12.136,2.461,16.516,6.842c4.381,4.38,6.842,10.321,6.842,16.517l0,0
			c0,12.899-10.458,23.357-23.357,23.357l0,0C479.218,427.633,468.76,417.175,468.76,404.275z"/>
		<path fill="#CFE2F3" d="M182.575,404.275L182.575,404.275c0-12.9,10.458-23.358,23.357-23.358l0,0
			c6.195,0,12.136,2.461,16.517,6.842c4.38,4.38,6.841,10.321,6.841,16.517l0,0c0,12.899-10.458,23.357-23.358,23.357l0,0
			C193.032,427.633,182.575,417.175,182.575,404.275z"/>
		<path fill-opacity="0" d="M189.416,387.759l33.033,33.032 M222.449,387.759l-33.033,33.032"/>
		<path fill-opacity="0" d="M182.575,404.275L182.575,404.275c0-12.9,10.458-23.358,23.357-23.358l0,0
			c6.195,0,12.136,2.461,16.517,6.842c4.38,4.38,6.841,10.321,6.841,16.517l0,0c0,12.899-10.458,23.357-23.358,23.357l0,0
			C193.032,427.633,182.575,417.175,182.575,404.275z"/>
		<path fill="none" stroke="#000000" stroke-linejoin="round" stroke-miterlimit="10" d="M189.416,387.759l33.033,33.032
			 M222.449,387.759l-33.033,33.032"/>
		<path fill="none" stroke="#000000" stroke-linejoin="round" stroke-miterlimit="10" d="M182.575,404.275L182.575,404.275
			c0-12.9,10.458-23.358,23.357-23.358l0,0c6.195,0,12.136,2.461,16.517,6.842c4.38,4.38,6.841,10.321,6.841,16.517l0,0
			c0,12.899-10.458,23.357-23.358,23.357l0,0C193.032,427.633,182.575,417.175,182.575,404.275z"/>
		<path fill="#CFE2F3" d="M182.575,101.885L182.575,101.885c0-12.9,10.458-23.358,23.357-23.358l0,0
			c6.195,0,12.136,2.461,16.517,6.841c4.38,4.381,6.841,10.322,6.841,16.517l0,0c0,12.9-10.458,23.358-23.358,23.358l0,0
			C193.032,125.243,182.575,114.785,182.575,101.885z"/>
		<path fill-opacity="0" d="M189.416,85.368l33.033,33.033 M222.449,85.368l-33.033,33.033"/>
		<path fill-opacity="0" d="M182.575,101.885L182.575,101.885c0-12.9,10.458-23.358,23.357-23.358l0,0
			c6.195,0,12.136,2.461,16.517,6.841c4.38,4.381,6.841,10.322,6.841,16.517l0,0c0,12.9-10.458,23.358-23.358,23.358l0,0
			C193.032,125.243,182.575,114.785,182.575,101.885z"/>
		<path fill="none" stroke="#000000" stroke-linejoin="round" stroke-miterlimit="10" d="M189.416,85.368l33.033,33.033
			 M222.449,85.368l-33.033,33.033"/>
		<path fill="none" stroke="#000000" stroke-linejoin="round" stroke-miterlimit="10" d="M182.575,101.885L182.575,101.885
			c0-12.9,10.458-23.358,23.357-23.358l0,0c6.195,0,12.136,2.461,16.517,6.841c4.38,4.381,6.841,10.322,6.841,16.517l0,0
			c0,12.9-10.458,23.358-23.358,23.358l0,0C193.032,125.243,182.575,114.785,182.575,101.885z"/>
		<path fill-opacity="0" d="M204.471,253.268l146.712,1.47"/>
		<path fill="none" stroke="#000000" stroke-width="8" stroke-linejoin="round" stroke-miterlimit="10" d="M204.471,253.268
			l146.712,1.47"/>
		<path fill="#CFE2F3" d="M325.667,253.08L325.667,253.08c0-12.9,10.458-23.358,23.358-23.358l0,0
			c6.195,0,12.136,2.461,16.517,6.841s6.841,10.322,6.841,16.517l0,0c0,12.9-10.458,23.357-23.358,23.357l0,0
			C336.125,276.438,325.667,265.98,325.667,253.08z"/>
		<path fill-opacity="0" d="M332.509,236.563l33.033,33.033 M365.542,236.563l-33.033,33.033"/>
		<path fill-opacity="0" d="M325.667,253.08L325.667,253.08c0-12.9,10.458-23.358,23.358-23.358l0,0
			c6.195,0,12.136,2.461,16.517,6.841s6.841,10.322,6.841,16.517l0,0c0,12.9-10.458,23.357-23.358,23.357l0,0
			C336.125,276.438,325.667,265.98,325.667,253.08z"/>
		<path fill="none" stroke="#000000" stroke-linejoin="round" stroke-miterlimit="10" d="M332.509,236.563l33.033,33.033
			 M365.542,236.563l-33.033,33.033"/>
		<path fill="none" stroke="#000000" stroke-linejoin="round" stroke-miterlimit="10" d="M325.667,253.08L325.667,253.08
			c0-12.9,10.458-23.358,23.358-23.358l0,0c6.195,0,12.136,2.461,16.517,6.841s6.841,10.322,6.841,16.517l0,0
			c0,12.9-10.458,23.357-23.358,23.357l0,0C336.125,276.438,325.667,265.98,325.667,253.08z"/>
		<path fill="#CFE2F3" d="M179.035,253.08L179.035,253.08c0-12.9,10.458-23.358,23.358-23.358l0,0
			c6.195,0,12.136,2.461,16.517,6.841c4.38,4.38,6.841,10.322,6.841,16.517l0,0c0,12.9-10.458,23.357-23.358,23.357l0,0
			C189.492,276.438,179.035,265.98,179.035,253.08z"/>
		<path fill-opacity="0" d="M185.876,236.563l33.033,33.033 M218.909,236.563l-33.033,33.033"/>
		<path fill-opacity="0" d="M179.035,253.08L179.035,253.08c0-12.9,10.458-23.358,23.358-23.358l0,0
			c6.195,0,12.136,2.461,16.517,6.841c4.38,4.38,6.841,10.322,6.841,16.517l0,0c0,12.9-10.458,23.357-23.358,23.357l0,0
			C189.492,276.438,179.035,265.98,179.035,253.08z"/>
		<path fill="none" stroke="#000000" stroke-linejoin="round" stroke-miterlimit="10" d="M185.876,236.563l33.033,33.033
			 M218.909,236.563l-33.033,33.033"/>
		<path fill="none" stroke="#000000" stroke-linejoin="round" stroke-miterlimit="10" d="M179.035,253.08L179.035,253.08
			c0-12.9,10.458-23.358,23.358-23.358l0,0c6.195,0,12.136,2.461,16.517,6.841c4.38,4.38,6.841,10.322,6.841,16.517l0,0
			c0,12.9-10.458,23.357-23.358,23.357l0,0C189.492,276.438,179.035,265.98,179.035,253.08z"/>
	</g>
</g>
</svg>
