<?xml version="1.0" encoding="utf-8"?>
<!-- Generator: Adobe Illustrator 16.0.3, SVG Export Plug-In . SVG Version: 6.00 Build 0)  -->
<!DOCTYPE svg PUBLIC "-//W3C//DTD SVG 1.1//EN" "http://www.w3.org/Graphics/SVG/1.1/DTD/svg11.dtd">
<svg version="1.1" id="Layer_1" xmlns="http://www.w3.org/2000/svg" xmlns:xlink="http://www.w3.org/1999/xlink" x="0px" y="0px"
	 width="433.089px" height="458.305px" viewBox="257.125 54.628 433.089 458.305"
	 enable-background="new 257.125 54.628 433.089 458.305" xml:space="preserve">
<g>
	<g>
		<path fill="#B4A7D6" d="M257.65,169.853h107.746V283.65H257.65V169.853z"/>
		<path fill="none" stroke="#000000" stroke-linejoin="round" stroke-miterlimit="10" stroke-dasharray="1,3" d="M257.65,169.853
			h107.746V283.65H257.65V169.853z"/>
		<path fill="#B4A7D6" d="M257.65,55.461h107.746v113.797H257.65V55.461z"/>
		<path fill="none" stroke="#000000" stroke-linejoin="round" stroke-miterlimit="10" stroke-dasharray="1,3" d="M257.65,55.461
			h107.746v113.797H257.65V55.461z"/>
		<path fill="#B4A7D6" d="M365.386,55.415h107.746v113.797H365.386V55.415z"/>
		<path fill="none" stroke="#000000" stroke-linejoin="round" stroke-miterlimit="10" stroke-dasharray="1,3" d="M365.386,55.415
			h107.746v113.797H365.386V55.415z"/>
		<path fill="#B4A7D6" d="M257.65,283.391h107.746v113.797H257.65V283.391z"/>
		<path fill="none" stroke="#000000" stroke-linejoin="round" stroke-miterlimit="10" stroke-dasharray="1,3" d="M257.65,283.391
			h107.746v113.797H257.65V283.391z"/>
		<path fill="#B4A7D6" d="M473.677,55.461h107.746v113.797H473.677V55.461z"/>
		<path fill="none" stroke="#000000" stroke-linejoin="round" stroke-miterlimit="10" stroke-dasharray="1,3" d="M473.677,55.461
			h107.746v113.797H473.677V55.461z"/>
		<path fill="#B4A7D6" d="M581.969,55.461h107.745v113.797H581.969V55.461z"/>
		<path fill="none" stroke="#000000" stroke-linejoin="round" stroke-miterlimit="10" stroke-dasharray="1,3" d="M581.969,55.461
			h107.745v113.797H581.969V55.461z"/>
		<path fill="#B4A7D6" d="M581.969,169.853h107.745V283.65H581.969V169.853z"/>
		<path fill="none" stroke="#000000" stroke-linejoin="round" stroke-miterlimit="10" stroke-dasharray="1,3" d="M581.969,169.853
			h107.745V283.65H581.969V169.853z"/>
		<path fill="#B4A7D6" d="M581.969,284.245h107.745v113.797H581.969V284.245z"/>
		<path fill="none" stroke="#000000" stroke-linejoin="round" stroke-miterlimit="10" stroke-dasharray="1,3" d="M581.969,284.245
			h107.745v113.797H581.969V284.245z"/>
		<path fill="#B4A7D6" d="M581.969,398.637h107.745v113.797H581.969V398.637z"/>
		<path fill="none" stroke="#000000" stroke-linejoin="round" stroke-miterlimit="10" stroke-dasharray="1,3" d="M581.969,398.637
			h107.745v113.797H581.969V398.637z"/>
		<path fill="#B4A7D6" d="M473.677,397.447h107.746v113.797H473.677V397.447z"/>
		<path fill="none" stroke="#000000" stroke-linejoin="round" stroke-miterlimit="10" stroke-dasharray="1,3" d="M473.677,397.447
			h107.746v113.797H473.677V397.447z"/>
		<path fill="#B4A7D6" d="M365.386,397.494h107.746v113.798H365.386V397.494z"/>
		<path fill="none" stroke="#000000" stroke-linejoin="round" stroke-miterlimit="10" stroke-dasharray="1,3" d="M365.386,397.494
			h107.746v113.798H365.386V397.494z"/>
		<path fill="#B4A7D6" d="M257.649,397.494h107.746v113.798H257.649V397.494z"/>
		<path fill="none" stroke="#000000" stroke-linejoin="round" stroke-miterlimit="10" stroke-dasharray="1,3" d="M257.649,397.494
			h107.746v113.798H257.649V397.494z"/>
		<path fill="#CFE2F3" d="M364.292,169.853h107.745V283.65H364.292V169.853z"/>
		<path fill="none" stroke="#000000" stroke-linejoin="round" stroke-miterlimit="10" stroke-dasharray="1,3" d="M364.292,169.853
			h107.745V283.65H364.292V169.853z"/>
		<path fill="#CFE2F3" d="M472.037,169.853h107.746V283.65H472.037V169.853z"/>
		<path fill="none" stroke="#000000" stroke-linejoin="round" stroke-miterlimit="10" stroke-dasharray="1,3" d="M472.037,169.853
			h107.746V283.65H472.037V169.853z"/>
		<path fill="#CFE2F3" d="M364.292,283.65h107.745v113.797H364.292V283.65z"/>
		<path fill="none" stroke="#000000" stroke-linejoin="round" stroke-miterlimit="10" stroke-dasharray="1,3" d="M364.292,283.65
			h107.745v113.797H364.292V283.65z"/>
		<path fill="#CFE2F3" d="M472.037,283.65h107.746v113.797H472.037V283.65z"/>
		<path fill="none" stroke="#000000" stroke-linejoin="round" stroke-miterlimit="10" stroke-dasharray="1,3" d="M472.037,283.65
			h107.746v113.797H472.037V283.65z"/>
		<path fill-opacity="0" d="M386.284,207.822h63.762v37.858h-63.762V207.822z"/>
		<path d="M413.856,234.624v-14.296h9.162v2.142h-6.627v3.652h5.62v2.142h-5.62v4.219h6.847v2.142H413.856z"/>
		<path fill-opacity="0" d="M494.029,212.249h63.762v37.858h-63.762V212.249z"/>
		<path d="M512.83,239.316c-1.001,0-1.962-0.183-2.883-0.549c-0.916-0.366-1.73-0.885-2.444-1.556l1.482-1.721
			c0.537,0.476,1.147,0.863,1.831,1.162c0.689,0.299,1.413,0.449,2.169,0.449c0.83,0,1.465-0.162,1.904-0.485
			c0.439-0.33,0.658-0.742,0.658-1.236c0-0.427-0.104-0.766-0.311-1.016c-0.201-0.256-0.482-0.473-0.842-0.65
			c-0.354-0.177-0.772-0.36-1.254-0.549l-1.95-0.851c-0.494-0.202-0.979-0.461-1.455-0.778c-0.47-0.323-0.854-0.732-1.153-1.227
			c-0.299-0.5-0.448-1.101-0.448-1.803c0-0.757,0.21-1.437,0.632-2.041c0.421-0.604,1.007-1.083,1.757-1.437
			c0.751-0.36,1.608-0.54,2.572-0.54c0.872,0,1.705,0.165,2.498,0.494c0.8,0.323,1.498,0.763,2.097,1.318l-1.318,1.62
			c-0.476-0.396-0.982-0.699-1.52-0.906c-0.53-0.213-1.159-0.32-1.885-0.32c-0.672,0-1.221,0.146-1.648,0.439
			c-0.421,0.293-0.631,0.708-0.631,1.245c0,0.366,0.115,0.665,0.348,0.897c0.238,0.232,0.543,0.437,0.915,0.613
			s0.769,0.345,1.19,0.503l1.876,0.806c0.616,0.238,1.156,0.524,1.62,0.86c0.47,0.33,0.836,0.741,1.098,1.235
			c0.263,0.488,0.395,1.08,0.395,1.776c0,0.775-0.214,1.482-0.641,2.123c-0.422,0.641-1.025,1.157-1.813,1.547
			C514.89,239.124,513.94,239.316,512.83,239.316z M524.796,244.515v-21.866h2.233v21.866H524.796z M534.657,239.051l-2.031-14.297
			h2.709l0.723,8.283c0.031,0.397,0.059,0.775,0.083,1.135c0.03,0.354,0.052,0.714,0.063,1.08c0.019,0.36,0.034,0.766,0.046,1.217
			h0.064c0.073-0.452,0.149-0.857,0.229-1.217c0.085-0.366,0.165-0.726,0.238-1.08c0.073-0.36,0.152-0.738,0.237-1.135l1.181-4.631
			h1.904l1.116,4.631c0.098,0.397,0.184,0.769,0.257,1.117c0.073,0.348,0.146,0.708,0.22,1.08s0.146,0.784,0.22,1.236h0.091
			c0.024-0.452,0.043-0.864,0.056-1.236c0.018-0.372,0.033-0.732,0.045-1.08c0.019-0.348,0.043-0.72,0.073-1.117l0.696-8.283h2.563
			l-1.932,14.297h-2.864l-1.107-5.071c-0.104-0.452-0.192-0.9-0.266-1.345c-0.073-0.446-0.141-0.888-0.201-1.327h-0.064
			c-0.055,0.439-0.115,0.881-0.183,1.327c-0.067,0.445-0.149,0.894-0.247,1.345l-1.099,5.071H534.657z"/>
		<path fill-opacity="0" d="M386.284,321.619h63.762v37.858h-63.762V321.619z"/>
		<path d="M413.856,348.421v-14.296h9.162v2.142h-6.627v3.651h5.62v2.143h-5.62v4.219h6.847v2.142H413.856z"/>
		<path fill-opacity="0" d="M494.029,321.619h63.762v37.858h-63.762V321.619z"/>
		<path fill-opacity="0" d="M494.029,321.619h63.762v37.858h-63.762V321.619z"/>
		<path d="M507.851,348.421v-14.296h2.664l3.789,8.018l1.281,3.066h0.073c-0.049-0.732-0.122-1.529-0.22-2.39
			c-0.092-0.86-0.137-1.689-0.137-2.489v-6.205h2.434v14.296h-2.672l-3.78-8.045l-1.29-3.039h-0.064
			c0.043,0.757,0.109,1.557,0.201,2.398c0.098,0.836,0.146,1.647,0.146,2.435v6.251H507.851z M524.796,353.886V332.02h2.233v21.866
			H524.796z M534.657,348.421l-2.031-14.296h2.709l0.723,8.283c0.031,0.396,0.059,0.774,0.083,1.135
			c0.03,0.354,0.052,0.714,0.063,1.08c0.019,0.359,0.034,0.766,0.046,1.217h0.064c0.073-0.451,0.149-0.857,0.229-1.217
			c0.085-0.366,0.165-0.727,0.238-1.08c0.073-0.36,0.152-0.738,0.237-1.135l1.181-4.632h1.904l1.116,4.632
			c0.098,0.396,0.184,0.769,0.257,1.116s0.146,0.708,0.22,1.08s0.146,0.784,0.22,1.235h0.091c0.024-0.451,0.043-0.863,0.056-1.235
			c0.018-0.372,0.033-0.732,0.045-1.08c0.019-0.348,0.043-0.72,0.073-1.116l0.696-8.283h2.563l-1.932,14.296h-2.864l-1.107-5.07
			c-0.104-0.451-0.192-0.9-0.266-1.346s-0.141-0.888-0.201-1.327h-0.064c-0.055,0.439-0.115,0.882-0.183,1.327
			s-0.149,0.895-0.247,1.346l-1.099,5.07H534.657z"/>
		<path fill-opacity="0" d="M364.842,169.258l0.554,228.683"/>
		<path fill="none" stroke="#000000" stroke-width="8" stroke-linejoin="round" stroke-miterlimit="10" d="M364.842,169.258
			l0.554,228.683"/>
		<path fill-opacity="0" d="M365.391,169.258h216.026"/>
		<path fill="none" stroke="#000000" stroke-width="8" stroke-linejoin="round" stroke-miterlimit="10" d="M365.391,169.258h216.026
			"/>
		<path fill-opacity="0" d="M580.324,169.807v228.129"/>
		<path fill="none" stroke="#000000" stroke-width="8" stroke-linejoin="round" stroke-miterlimit="10" d="M580.324,169.807v228.129
			"/>
		<path fill-opacity="0" d="M581.974,398.481l-216.579-1.642"/>
		<path fill="none" stroke="#000000" stroke-width="8" stroke-linejoin="round" stroke-miterlimit="10" d="M581.974,398.481
			l-216.579-1.642"/>
		<path fill="#CFE2F3" d="M454.471,171.809L454.471,171.809c0-9.716,7.876-17.592,17.592-17.592l0,0
			c4.665,0,9.14,1.854,12.438,5.153c3.3,3.299,5.152,7.773,5.152,12.439l0,0c0,9.716-7.876,17.592-17.591,17.592l0,0
			C462.347,189.4,454.471,181.524,454.471,171.809z"/>
		<path fill-opacity="0" d="M459.623,159.37l24.878,24.878 M484.501,159.37l-24.878,24.878"/>
		<path fill-opacity="0" d="M454.471,171.809L454.471,171.809c0-9.716,7.876-17.592,17.592-17.592l0,0
			c4.665,0,9.14,1.854,12.438,5.153c3.3,3.299,5.152,7.773,5.152,12.439l0,0c0,9.716-7.876,17.592-17.591,17.592l0,0
			C462.347,189.4,454.471,181.524,454.471,171.809z"/>
		<path fill="none" stroke="#000000" stroke-linejoin="round" stroke-miterlimit="10" d="M459.623,159.37l24.878,24.878
			 M484.501,159.37l-24.878,24.878"/>
		<path fill="none" stroke="#000000" stroke-linejoin="round" stroke-miterlimit="10" d="M454.471,171.809L454.471,171.809
			c0-9.716,7.876-17.592,17.592-17.592l0,0c4.665,0,9.14,1.854,12.438,5.153c3.3,3.299,5.152,7.773,5.152,12.439l0,0
			c0,9.716-7.876,17.592-17.591,17.592l0,0C462.347,189.4,454.471,181.524,454.471,171.809z"/>
		<path fill="#CFE2F3" d="M562.239,168.483L562.239,168.483c0-9.715,7.876-17.591,17.592-17.591l0,0
			c4.665,0,9.14,1.853,12.438,5.152c3.3,3.299,5.153,7.773,5.153,12.439l0,0c0,9.716-7.877,17.592-17.592,17.592l0,0
			C570.115,186.075,562.239,178.199,562.239,168.483z"/>
		<path fill-opacity="0" d="M567.392,156.044l24.878,24.878 M592.27,156.044l-24.878,24.878"/>
		<path fill-opacity="0" d="M562.239,168.483L562.239,168.483c0-9.715,7.876-17.591,17.592-17.591l0,0
			c4.665,0,9.14,1.853,12.438,5.152c3.3,3.299,5.153,7.773,5.153,12.439l0,0c0,9.716-7.877,17.592-17.592,17.592l0,0
			C570.115,186.075,562.239,178.199,562.239,168.483z"/>
		<path fill="none" stroke="#000000" stroke-linejoin="round" stroke-miterlimit="10" d="M567.392,156.044l24.878,24.878
			 M592.27,156.044l-24.878,24.878"/>
		<path fill="none" stroke="#000000" stroke-linejoin="round" stroke-miterlimit="10" d="M562.239,168.483L562.239,168.483
			c0-9.715,7.876-17.591,17.592-17.591l0,0c4.665,0,9.14,1.853,12.438,5.152c3.3,3.299,5.153,7.773,5.153,12.439l0,0
			c0,9.716-7.877,17.592-17.592,17.592l0,0C570.115,186.075,562.239,178.199,562.239,168.483z"/>
		<path fill="#CFE2F3" d="M562.239,282.354L562.239,282.354c0-9.715,7.876-17.591,17.592-17.591l0,0
			c4.665,0,9.14,1.854,12.438,5.152c3.3,3.299,5.153,7.774,5.153,12.439l0,0c0,9.716-7.877,17.592-17.592,17.592l0,0
			C570.115,299.945,562.239,292.069,562.239,282.354z"/>
		<path fill-opacity="0" d="M567.392,269.915l24.878,24.878 M592.27,269.915l-24.878,24.878"/>
		<path fill-opacity="0" d="M562.239,282.354L562.239,282.354c0-9.715,7.876-17.591,17.592-17.591l0,0
			c4.665,0,9.14,1.854,12.438,5.152c3.3,3.299,5.153,7.774,5.153,12.439l0,0c0,9.716-7.877,17.592-17.592,17.592l0,0
			C570.115,299.945,562.239,292.069,562.239,282.354z"/>
		<path fill="none" stroke="#000000" stroke-linejoin="round" stroke-miterlimit="10" d="M567.392,269.915l24.878,24.878
			 M592.27,269.915l-24.878,24.878"/>
		<path fill="none" stroke="#000000" stroke-linejoin="round" stroke-miterlimit="10" d="M562.239,282.354L562.239,282.354
			c0-9.715,7.876-17.591,17.592-17.591l0,0c4.665,0,9.14,1.854,12.438,5.152c3.3,3.299,5.153,7.774,5.153,12.439l0,0
			c0,9.716-7.877,17.592-17.592,17.592l0,0C570.115,299.945,562.239,292.069,562.239,282.354z"/>
		<path fill="#CFE2F3" d="M454.471,399L454.471,399c0-9.716,7.876-17.592,17.592-17.592l0,0c4.665,0,9.14,1.854,12.438,5.152
			c3.3,3.299,5.152,7.773,5.152,12.439l0,0c0,9.716-7.876,17.592-17.591,17.592l0,0C462.347,416.592,454.471,408.716,454.471,399z"
			/>
		<path fill-opacity="0" d="M459.623,386.561l24.878,24.879 M484.501,386.561l-24.878,24.879"/>
		<path fill-opacity="0" d="M454.471,399L454.471,399c0-9.716,7.876-17.592,17.592-17.592l0,0c4.665,0,9.14,1.854,12.438,5.152
			c3.3,3.299,5.152,7.773,5.152,12.439l0,0c0,9.716-7.876,17.592-17.591,17.592l0,0C462.347,416.592,454.471,408.716,454.471,399z"
			/>
		<path fill="none" stroke="#000000" stroke-linejoin="round" stroke-miterlimit="10" d="M459.623,386.561l24.878,24.879
			 M484.501,386.561l-24.878,24.879"/>
		<path fill="none" stroke="#000000" stroke-linejoin="round" stroke-miterlimit="10" d="M454.471,399L454.471,399
			c0-9.716,7.876-17.592,17.592-17.592l0,0c4.665,0,9.14,1.854,12.438,5.152c3.3,3.299,5.152,7.773,5.152,12.439l0,0
			c0,9.716-7.876,17.592-17.591,17.592l0,0C462.347,416.592,454.471,408.716,454.471,399z"/>
		<path fill="#CFE2F3" d="M562.239,396.225L562.239,396.225c0-9.716,7.876-17.592,17.592-17.592l0,0
			c4.665,0,9.14,1.854,12.438,5.152c3.3,3.3,5.153,7.773,5.153,12.439l0,0c0,9.716-7.877,17.592-17.592,17.592l0,0
			C570.115,413.816,562.239,405.94,562.239,396.225z"/>
		<path fill-opacity="0" d="M567.392,383.785l24.878,24.879 M592.27,383.785l-24.878,24.879"/>
		<path fill-opacity="0" d="M562.239,396.225L562.239,396.225c0-9.716,7.876-17.592,17.592-17.592l0,0
			c4.665,0,9.14,1.854,12.438,5.152c3.3,3.3,5.153,7.773,5.153,12.439l0,0c0,9.716-7.877,17.592-17.592,17.592l0,0
			C570.115,413.816,562.239,405.94,562.239,396.225z"/>
		<path fill="none" stroke="#000000" stroke-linejoin="round" stroke-miterlimit="10" d="M567.392,383.785l24.878,24.879
			 M592.27,383.785l-24.878,24.879"/>
		<path fill="none" stroke="#000000" stroke-linejoin="round" stroke-miterlimit="10" d="M562.239,396.225L562.239,396.225
			c0-9.716,7.876-17.592,17.592-17.592l0,0c4.665,0,9.14,1.854,12.438,5.152c3.3,3.3,5.153,7.773,5.153,12.439l0,0
			c0,9.716-7.877,17.592-17.592,17.592l0,0C570.115,413.816,562.239,405.94,562.239,396.225z"/>
		<path fill="#CFE2F3" d="M346.702,396.225L346.702,396.225c0-9.716,7.876-17.592,17.592-17.592l0,0
			c4.666,0,9.14,1.854,12.439,5.152c3.299,3.3,5.153,7.773,5.153,12.439l0,0c0,9.716-7.876,17.592-17.592,17.592l0,0
			C354.578,413.816,346.702,405.94,346.702,396.225z"/>
		<path fill-opacity="0" d="M351.854,383.785l24.878,24.879 M376.732,383.785l-24.878,24.879"/>
		<path fill-opacity="0" d="M346.702,396.225L346.702,396.225c0-9.716,7.876-17.592,17.592-17.592l0,0
			c4.666,0,9.14,1.854,12.439,5.152c3.299,3.3,5.153,7.773,5.153,12.439l0,0c0,9.716-7.876,17.592-17.592,17.592l0,0
			C354.578,413.816,346.702,405.94,346.702,396.225z"/>
		<path fill="none" stroke="#000000" stroke-linejoin="round" stroke-miterlimit="10" d="M351.854,383.785l24.878,24.879
			 M376.732,383.785l-24.878,24.879"/>
		<path fill="none" stroke="#000000" stroke-linejoin="round" stroke-miterlimit="10" d="M346.702,396.225L346.702,396.225
			c0-9.716,7.876-17.592,17.592-17.592l0,0c4.666,0,9.14,1.854,12.439,5.152c3.299,3.3,5.153,7.773,5.153,12.439l0,0
			c0,9.716-7.876,17.592-17.592,17.592l0,0C354.578,413.816,346.702,405.94,346.702,396.225z"/>
		<path fill-opacity="0" d="M363.193,282.495l110.495,1.106"/>
		<path fill="none" stroke="#000000" stroke-width="8" stroke-linejoin="round" stroke-miterlimit="10" d="M363.193,282.495
			l110.495,1.106"/>
		<path fill="#CFE2F3" d="M454.471,282.354L454.471,282.354c0-9.715,7.876-17.591,17.592-17.591l0,0
			c4.665,0,9.14,1.854,12.438,5.152c3.3,3.299,5.152,7.774,5.152,12.439l0,0c0,9.716-7.876,17.592-17.591,17.592l0,0
			C462.347,299.945,454.471,292.069,454.471,282.354z"/>
		<path fill-opacity="0" d="M459.623,269.915l24.878,24.878 M484.501,269.915l-24.878,24.878"/>
		<path fill-opacity="0" d="M454.471,282.354L454.471,282.354c0-9.715,7.876-17.591,17.592-17.591l0,0
			c4.665,0,9.14,1.854,12.438,5.152c3.3,3.299,5.152,7.774,5.152,12.439l0,0c0,9.716-7.876,17.592-17.591,17.592l0,0
			C462.347,299.945,454.471,292.069,454.471,282.354z"/>
		<path fill="none" stroke="#000000" stroke-linejoin="round" stroke-miterlimit="10" d="M459.623,269.915l24.878,24.878
			 M484.501,269.915l-24.878,24.878"/>
		<path fill="none" stroke="#000000" stroke-linejoin="round" stroke-miterlimit="10" d="M454.471,282.354L454.471,282.354
			c0-9.715,7.876-17.591,17.592-17.591l0,0c4.665,0,9.14,1.854,12.438,5.152c3.3,3.299,5.152,7.774,5.152,12.439l0,0
			c0,9.716-7.876,17.592-17.591,17.592l0,0C462.347,299.945,454.471,292.069,454.471,282.354z"/>
		<path fill="#CFE2F3" d="M344.036,282.354L344.036,282.354c0-9.715,7.876-17.591,17.592-17.591l0,0
			c4.666,0,9.14,1.854,12.439,5.152c3.299,3.299,5.152,7.774,5.152,12.439l0,0c0,9.716-7.876,17.592-17.592,17.592l0,0
			C351.912,299.945,344.036,292.069,344.036,282.354z"/>
		<path fill-opacity="0" d="M349.188,269.915l24.878,24.878 M374.067,269.915l-24.878,24.878"/>
		<path fill-opacity="0" d="M344.036,282.354L344.036,282.354c0-9.715,7.876-17.591,17.592-17.591l0,0
			c4.666,0,9.14,1.854,12.439,5.152c3.299,3.299,5.152,7.774,5.152,12.439l0,0c0,9.716-7.876,17.592-17.592,17.592l0,0
			C351.912,299.945,344.036,292.069,344.036,282.354z"/>
		<path fill="none" stroke="#000000" stroke-linejoin="round" stroke-miterlimit="10" d="M349.188,269.915l24.878,24.878
			 M374.067,269.915l-24.878,24.878"/>
		<path fill="none" stroke="#000000" stroke-linejoin="round" stroke-miterlimit="10" d="M344.036,282.354L344.036,282.354
			c0-9.715,7.876-17.591,17.592-17.591l0,0c4.666,0,9.14,1.854,12.439,5.152c3.299,3.299,5.152,7.774,5.152,12.439l0,0
			c0,9.716-7.876,17.592-17.592,17.592l0,0C351.912,299.945,344.036,292.069,344.036,282.354z"/>
		<path fill-opacity="0" d="M258.625,56.128h212.871v228.129H258.625V56.128z"/>
		<path fill="none" stroke="#FF0000" stroke-width="3" stroke-linejoin="round" stroke-miterlimit="10" stroke-dasharray="12,9" d="
			M258.625,56.128h212.871v228.129H258.625V56.128z"/>
		<path fill="#CFE2F3" d="M346.702,168.483L346.702,168.483c0-9.715,7.876-17.591,17.592-17.591l0,0
			c4.666,0,9.14,1.853,12.439,5.152c3.299,3.299,5.153,7.773,5.153,12.439l0,0c0,9.716-7.876,17.592-17.592,17.592l0,0
			C354.578,186.075,346.702,178.199,346.702,168.483z"/>
		<path fill-opacity="0" d="M351.854,156.044l24.878,24.878 M376.732,156.044l-24.878,24.878"/>
		<path fill-opacity="0" d="M346.702,168.483L346.702,168.483c0-9.715,7.876-17.591,17.592-17.591l0,0
			c4.666,0,9.14,1.853,12.439,5.152c3.299,3.299,5.153,7.773,5.153,12.439l0,0c0,9.716-7.876,17.592-17.592,17.592l0,0
			C354.578,186.075,346.702,178.199,346.702,168.483z"/>
		<path fill="none" stroke="#FF0000" stroke-linejoin="round" stroke-miterlimit="10" d="M351.854,156.044l24.878,24.878
			 M376.732,156.044l-24.878,24.878"/>
		<path fill="none" stroke="#FF0000" stroke-linejoin="round" stroke-miterlimit="10" d="M346.702,168.483L346.702,168.483
			c0-9.715,7.876-17.591,17.592-17.591l0,0c4.666,0,9.14,1.853,12.439,5.152c3.299,3.299,5.153,7.773,5.153,12.439l0,0
			c0,9.716-7.876,17.592-17.592,17.592l0,0C354.578,186.075,346.702,178.199,346.702,168.483z"/>
	</g>
</g>
</svg>
